<?xml version="1.0" encoding="utf-8"?>
<!-- Generator: Adobe Illustrator 16.0.0, SVG Export Plug-In . SVG Version: 6.00 Build 0)  -->
<!DOCTYPE svg PUBLIC "-//W3C//DTD SVG 1.1//EN" "http://www.w3.org/Graphics/SVG/1.1/DTD/svg11.dtd">
<svg version="1.1" id="Capa_1" xmlns="http://www.w3.org/2000/svg" xmlns:xlink="http://www.w3.org/1999/xlink" x="0px" y="0px"
	 width="45px" height="45px" viewBox="403 135 45 45" enable-background="new 403 135 45 45" xml:space="preserve">
<g>
	<g>
		<path fill="#FFFFFF" d="M420.52,155.25c0.092,0.559,0.308,0.91,0.521,1.134c0.505,3.356,3.315,6.477,5.884,6.477
			c2.995,0,5.723-3.375,6.245-6.471c0.217-0.221,0.434-0.575,0.527-1.14c0.17-0.629,0.393-1.725,0.006-2.235
			c-0.02-0.027-0.047-0.051-0.061-0.075c0.36-1.321,0.817-4.052-0.818-5.912c-0.147-0.187-1.065-1.283-3.025-1.861l-0.935-0.323
			c-1.543-0.475-2.516-0.583-2.557-0.586c-0.069-0.005-0.143,0-0.21,0.016c-0.057,0.017-0.237,0.065-0.381,0.045
			c-0.37-0.054-0.923,0.136-1.021,0.173c-0.126,0.052-3.116,1.248-4.022,4.034c-0.083,0.224-0.448,1.409,0.035,4.312
			c-0.072,0.048-0.135,0.11-0.191,0.18C420.128,153.528,420.347,154.621,420.52,155.25z"/>
		<path fill="#FFFFFF" d="M436.503,163.932c0,0-0.12-0.041-0.308-0.098c-1.29-0.606-2.507-0.993-2.507-0.993
			c-0.266-0.087-0.491-0.18-0.702-0.276c-0.869-0.43-1.598-0.918-1.749-1.377c0,0,0.507,4.886-3.766,4.996l-0.592-0.027
			c-3.869-0.341-4.125-4.979-4.125-4.979c-0.405,1.271-5.27,2.751-5.27,2.751c-1.447,0.549-2.057,1.387-2.057,1.387
			c-2.139,3.176-2.39,10.229-2.39,10.229c0.028,1.614,0.724,1.781,0.724,1.781c4.916,2.191,12.631,2.579,12.631,2.579
			c0.417,0.01,0.806-0.012,1.191-0.036l0.008,0.041c0,0,7.717-0.393,12.631-2.584c0,0,0.697-0.169,0.728-1.775
			c0,0-0.255-7.059-2.393-10.229C438.562,165.313,437.949,164.482,436.503,163.932z"/>
		<path fill="#FFFFFF" d="M431.066,161.398c0.059-0.071,0.111-0.141,0.171-0.211c-0.011-0.046-0.015-0.07-0.015-0.07
			C431.174,161.22,431.121,161.299,431.066,161.398z"/>
		<path fill="#FFFFFF" d="M422.779,161.171l-0.013-0.052l-0.011,0.058c0.002-0.012,0.011-0.024,0.016-0.03
			C422.771,161.146,422.773,161.152,422.779,161.171z"/>
		<path fill="#FFFFFF" d="M426.789,135.217c-11.597,0-21.034,9.438-21.034,21.036c0,2.292,0.399,4.567,1.126,6.726l-1.895-0.422
			c-0.748-0.175-1.485,0.3-1.652,1.046c-0.167,0.743,0.299,1.482,1.047,1.649l6.295,1.413c0.103,0.022,0.203,0.031,0.303,0.031
			c0.632,0,1.204-0.437,1.35-1.076l1.348-5.997c0.167-0.743-0.303-1.483-1.046-1.651c-0.752-0.165-1.484,0.3-1.652,1.045
			l-0.456,2.038c-0.457-1.547-0.715-3.149-0.715-4.802c0-9.368,7.621-16.986,16.985-16.986c9.367,0,16.987,7.622,16.987,16.986
			c0,2.826-0.709,5.622-2.047,8.077l3.559,1.936c1.657-3.053,2.535-6.511,2.535-10.012
			C447.826,144.655,438.389,135.217,426.789,135.217z"/>
	</g>
</g>
</svg>
