<?xml version="1.0" encoding="utf-8"?>
<!-- Generator: Adobe Illustrator 16.0.0, SVG Export Plug-In . SVG Version: 6.00 Build 0)  -->
<!DOCTYPE svg PUBLIC "-//W3C//DTD SVG 1.1//EN" "http://www.w3.org/Graphics/SVG/1.1/DTD/svg11.dtd">
<svg version="1.1" id="Layer_1" xmlns="http://www.w3.org/2000/svg" xmlns:xlink="http://www.w3.org/1999/xlink" x="0px" y="0px"
	 width="1417.32px" height="850.39px" viewBox="0 0 1417.32 850.39" enable-background="new 0 0 1417.32 850.39"
	 xml:space="preserve">
<path fill="#FFFFFF" d="M1101.724,550.451h-76.63l-17.564,47.974h-6.355l58.633-160.559h7.111l58.736,160.559h-6.367
	L1101.724,550.451z M1027.256,544.507h72.32l-32.871-89.874l-3.023-9.371h-0.649l-2.906,9.371L1027.256,544.507z"/>
<path fill="#FFFFFF" d="M1254.459,549.236l0.211,0.666c0.292,16.467-4.575,29.056-14.605,37.767
	c-10.027,8.713-23.228,13.069-39.607,13.069c-17.18,0-30.934-6.486-41.283-19.461c-10.345-12.976-15.52-30.006-15.52-51.114v-24.027
	c0-21.027,5.174-38.047,15.52-51.054c10.349-13.016,24.104-19.529,41.283-19.529c16.38,0,29.579,4.384,39.607,13.136
	c10.029,8.739,14.896,21.239,14.605,37.482l-0.211,0.666h-4.962c0-14.486-4.402-25.661-13.199-33.527
	c-8.807-7.869-20.759-11.8-35.84-11.8c-15.309,0-27.632,5.917-36.972,17.751c-9.337,11.848-14.008,27.386-14.008,46.645v24.256
	c0,19.482,4.671,35.13,14.008,46.922c9.34,11.8,21.662,17.696,36.972,17.696c15.081,0,27.033-3.785,35.84-11.354
	c8.796-7.578,13.199-18.971,13.199-34.191h4.962V549.236z"/>
<path fill="#FFFFFF" d="M203.126,291.232l0.33,1.038c0.449,25.866-7.193,45.64-22.935,59.312
	c-15.742,13.687-36.478,20.519-62.196,20.519c-26.984,0-48.596-10.185-64.843-30.561c-16.236-20.376-24.367-47.132-24.367-80.272
	v-37.74c0-33.011,8.131-59.746,24.367-80.185c16.247-20.424,37.859-30.643,64.843-30.643c25.717,0,46.454,6.867,62.196,20.607
	c15.743,13.734,23.384,33.357,22.935,58.878l-0.331,1.032h-7.796c0-22.745-6.916-40.293-20.737-52.643
	c-13.82-12.349-32.58-18.523-56.268-18.523c-24.049,0-43.407,9.289-58.065,27.881c-14.668,18.584-22.002,42.999-22.002,73.243
	v38.093c0,30.603,7.336,55.166,22.002,73.697c14.659,18.523,34.016,27.792,58.065,27.792c23.688,0,42.448-5.951,56.268-17.845
	c13.821-11.882,20.737-29.782,20.737-53.68H203.126L203.126,291.232z"/>
<polygon fill="#FFFFFF" points="438.913,368.472 429.769,368.472 429.769,248.111 272.346,248.111 272.346,368.472 263.203,368.472 
	263.203,116.326 272.346,116.326 272.346,238.762 429.769,238.762 429.769,116.326 438.913,116.326 "/>
<path fill="#FFFFFF" d="M639.497,293.141H519.139l-27.595,75.333h-9.981l92.08-252.147h11.173l92.258,252.147h-9.989
	L639.497,293.141z M522.521,283.79h113.591l-51.63-141.137l-4.736-14.71h-1.024l-4.57,14.71L522.521,283.79z"/>
<polygon fill="#FFFFFF" points="858.523,125.689 772.196,125.689 772.196,368.472 763.055,368.472 763.055,125.689 670.639,125.689 
	670.639,116.326 858.523,116.326 "/>
<path fill="#FFFFFF" d="M188.733,593.735c0-12.928-5.011-23.613-15.054-32.041c-10.039-8.421-27.088-16.332-51.124-23.721
	c-26.292-7.391-46.299-16.592-59.999-27.618c-13.719-11.021-20.569-26.002-20.569-44.934c0-19.285,7.658-35.129,23.024-47.539
	c15.333-12.41,34.925-18.618,58.741-18.618c25.042,0,45.19,7.009,60.419,21.035c15.238,14.033,22.63,31.843,22.178,53.429
	l-0.343,1.046h-18.956c0-16.641-5.903-30.427-17.699-41.393c-11.79-10.972-26.991-16.448-45.598-16.448
	c-19.203,0-34.224,4.641-45.118,13.938c-10.9,9.282-16.342,20.689-16.342,34.199c0,12.812,4.945,23.355,14.813,31.607
	c9.875,8.251,27.289,15.959,52.228,23.117c25.945,7.742,45.751,17.256,59.399,28.573c13.667,11.312,20.486,26.328,20.486,45.016
	c0,19.637-7.977,35.42-23.949,47.37c-15.967,11.949-36.077,17.919-60.346,17.919c-24.259,0-45.417-6.316-63.484-18.958
	c-18.036-12.647-26.791-31.091-26.227-55.328l0.345-1.046h18.773c0,19.508,7.18,34.036,21.502,43.549
	c14.337,9.542,30.692,14.291,49.091,14.291c18.839,0,34.19-4.411,46.045-13.245C182.818,619.105,188.733,607.701,188.733,593.735"/>
<path fill="#FFFFFF" d="M422.437,549.575c0,32.557-8.711,58.885-26.158,78.97c-17.431,20.085-40.821,30.128-70.159,30.128
	c-28.892,0-51.942-10.043-69.148-30.128c-17.211-20.085-25.813-46.413-25.813-78.97v-41.037c0-32.441,8.575-58.762,25.729-78.97
	c17.152-20.199,40.167-30.303,69.062-30.303c29.339,0,52.748,10.103,70.251,30.303c17.483,20.208,26.234,46.528,26.234,78.97
	L422.437,549.575L422.437,549.575z M402.287,508.191c0-27.243-6.739-49.188-20.232-65.812c-13.488-16.617-32.192-24.93-56.105-24.93
	c-23.479,0-41.766,8.313-54.851,24.93c-13.083,16.624-19.622,38.568-19.622,65.812v41.384c0,27.481,6.569,49.528,19.713,66.15
	c13.145,16.633,31.451,24.944,54.93,24.944c24.036,0,42.741-8.285,56.111-24.854c13.374-16.576,20.057-38.645,20.057-66.241V508.191
	L402.287,508.191z"/>
<path fill="#FFFFFF" d="M627.354,576.249l0.332,1.038c0.449,24.707-7.441,44.446-23.688,59.224
	c-16.266,14.779-37.586,22.162-63.991,22.162c-27.419,0-49.549-10.124-66.354-30.393c-16.818-20.254-25.233-46.492-25.233-78.705
	v-41.039c0-32.094,8.416-58.326,25.233-78.711c16.806-20.363,38.936-30.561,66.354-30.561c26.738,0,48.159,7.22,64.242,21.645
	c16.075,14.439,23.885,34.294,23.437,59.57l-0.332,1.044h-18.97c0-20.314-6.065-36.166-18.201-47.538
	c-12.122-11.366-28.853-17.052-50.176-17.052c-21.559,0-38.843,8.535-51.896,25.62c-13.026,17.088-19.538,38.97-19.538,65.638
	v41.384c0,27.02,6.512,49.031,19.538,66.063c13.053,17.03,30.337,25.54,51.896,25.54c21.323,0,38.054-5.536,50.176-16.625
	c12.136-11.073,18.201-27.181,18.201-48.305H627.354L627.354,576.249z"/>
<rect x="667.736" y="402.902" fill="#FFFFFF" width="20.307" height="252.133"/>
<path fill="#FFFFFF" d="M870.954,584.738H762.79l-24.872,70.297H716.92l90.56-252.134h19.129l89.883,252.134h-20.997
	L870.954,584.738z M769.224,566.208h95.124l-46.705-133.694h-1.021L769.224,566.208z"/>
<polygon fill="#FFFFFF" points="957.548,637.554 1084.839,637.554 1084.839,655.035 937.239,655.035 937.239,402.908 
	957.548,402.908 "/>
<polygon fill="#FFFFFF" points="33.135,675.716 70.584,675.716 70.584,683.818 42.058,683.818 42.058,707.066 68.946,707.066 
	68.946,715.168 42.058,715.168 42.058,741.74 71.799,741.74 71.799,749.835 33.135,749.835 "/>
<path fill="#FFFFFF" d="M80.624,694.201h8.115v6.528h0.218c2.23-5.075,7.907-7.994,13.169-7.994c6.302,0,10.053,2.497,11.776,8.826
	c2.432-4.878,7.316-8.826,12.896-8.826c14.298,0,14.298,11.115,14.298,17.655v39.445h-8.517V711.42
	c0-4.244-0.312-11.208-7.309-11.208c-3.966,0-10.144,2.497-10.144,11.208v38.415h-8.516V711.42c0-4.244-0.31-11.208-7.323-11.208
	c-3.955,0-10.135,2.497-10.135,11.208v38.415h-8.529L80.624,694.201L80.624,694.201z"/>
<path fill="#FFFFFF" d="M153.065,694.201h8.128v6.841h0.205c1.116-4.146,5.875-8.305,11.763-8.305
	c12.897,0,17.759,11.737,17.759,28.24c0,12.668-3.658,30.317-17.759,30.317c-4.867,0-9.435-3.014-11.354-7.79h-0.212v24.61h-8.528
	L153.065,694.201L153.065,694.201z M172.047,743.815c7.918,0,9.949-8.509,9.949-22.84c0-12.24-2.03-20.763-9.949-20.763
	c-9.435,0-10.955,9.133-10.955,21.802C161.092,732.809,162.919,743.815,172.047,743.815"/>
<path fill="#FFFFFF" d="M200.063,694.201h8.516v8.297h0.198c2.445-5.285,5.678-9.763,11.783-9.763c1.718,0,2.942,0.218,3.748,0.63
	v8.509c-0.806-0.103-1.828-0.412-4.563-0.412c-4.264,0-11.165,3.947-11.165,13.183v35.19h-8.516V694.201z"/>
<path fill="#FFFFFF" d="M237.193,723.058c0,8.503,0,21.373,10.454,21.373c8.113,0,9.227-8.711,9.227-12.87h8.517
	c0,5.917-3.449,19.731-18.255,19.731c-13.305,0-18.872-9.452-18.872-28.547c0-13.924,2.639-30.011,19.384-30.011
	c16.629,0,18.152,14.854,18.152,26.79v3.533H237.193L237.193,723.058z M256.875,716.199v-3c0-6.242-1.922-13.61-9.434-13.61
	c-8.925,0-9.95,11.216-9.95,14.533v2.077H256.875z"/>
<path fill="#FFFFFF" d="M275.141,694.201h8.115v6.528h0.205c2.229-5.075,7.92-7.994,13.184-7.994
	c14.308,0,14.308,11.115,14.308,17.655v39.445h-8.522V711.42c0-4.244-0.304-11.208-8.016-11.208
	c-4.563,0-10.759,3.121-10.759,11.208v38.415h-8.516v-55.635H275.141z"/>
<path fill="#FFFFFF" d="M357.943,749.835h-8.115v-6.854h-0.22c-1.114,4.167-5.872,8.312-11.761,8.312
	c-12.883,0-17.758-11.737-17.758-29.278c0-11.622,1.823-29.277,17.148-29.277c4.868,0,10.045,3.012,11.978,7.796h0.2v-24.814h8.529
	L357.943,749.835L357.943,749.835z M338.961,743.815c9.447,0,10.954-9.127,10.954-21.801c0-10.796-1.811-21.804-10.954-21.804
	c-7.907,0-9.937,8.524-9.937,21.804C329.024,735.306,331.054,743.815,338.961,743.815"/>
<path fill="#FFFFFF" d="M376.198,723.058c0,8.503,0,21.373,10.466,21.373c8.115,0,9.229-8.711,9.229-12.87h8.517
	c0,5.917-3.449,19.731-18.27,19.731c-13.292,0-18.86-9.452-18.86-28.547c0-13.924,2.639-30.011,19.384-30.011
	c16.632,0,18.154,14.854,18.154,26.79v3.533H376.198L376.198,723.058z M395.893,716.199v-3c0-6.242-1.937-13.61-9.448-13.61
	c-8.925,0-9.943,11.216-9.943,14.533v2.077H395.893z"/>
<path fill="#FFFFFF" d="M414.146,694.201h8.529v8.297h0.199c2.443-5.285,5.689-9.763,11.769-9.763c1.718,0,2.942,0.218,3.748,0.63
	v8.509c-0.805-0.103-1.813-0.412-4.563-0.412c-4.258,0-11.152,3.947-11.152,13.183v35.19h-8.529V694.201L414.146,694.201z"/>
<path fill="#FFFFFF" d="M463.97,694.201h9.34l10.755,44.634h0.198l9.545-44.634h9.337l-15.734,59.373
	c-2.033,7.682-4.258,14.541-14.514,14.541c-3.344,0-4.763-0.21-6.183-0.319v-6.859c1.211,0.216,2.84,0.319,4.982,0.319
	c3.949,0,5.677-2.391,6.695-5.402l1.615-4.871L463.97,694.201z"/>
<path fill="#FFFFFF" d="M559.955,711.116c0-5.4-2.119-11.525-8.626-11.525c-5.264,0-10.648,2.691-10.648,23.05
	c0,7.266,0.106,21.801,10.351,21.801c7.307,0,8.923-7.89,8.923-13.911h8.531c0,8.828-4.258,20.765-17.855,20.765
	c-13.292,0-18.873-9.452-18.873-28.547c0-13.918,2.633-30.019,19.376-30.019c14.817,0,17.351,11.95,17.351,18.387H559.955
	L559.955,711.116z"/>
<path fill="#FFFFFF" d="M594.263,692.735c15.728,0,19.571,13.604,19.571,29.279c0,15.68-3.953,29.278-19.571,29.278
	c-15.741,0-19.595-13.599-19.595-29.278C574.667,706.339,578.633,692.735,594.263,692.735 M604.91,722.014
	c0-12.044-1.724-22.424-10.854-22.424c-8.618,0-10.454,10.381-10.454,22.424c0,12.044,1.729,22.433,10.454,22.433
	C603.091,744.447,604.91,734.058,604.91,722.014"/>
<path fill="#FFFFFF" d="M622.367,694.201h8.115v6.528h0.205c2.243-5.075,7.918-7.994,13.195-7.994
	c14.296,0,14.296,11.115,14.296,17.655v39.445h-8.521V711.42c0-4.244-0.306-11.208-8.017-11.208
	c-4.563,0-10.757,3.121-10.757,11.208v38.415h-8.517L622.367,694.201L622.367,694.201z"/>
<path fill="#FFFFFF" d="M671.873,677.996h8.53V694.2h9.434v6.84h-9.434v35.72c0,4.456,1.113,6.222,5.584,6.222
	c1.818,0,2.839-0.195,3.752-0.305v7.159c-1.114,0.21-3.357,0.625-6.915,0.625c-8.82,0-10.953-3.738-10.953-10.998v-38.421h-7.907
	v-6.841h7.907L671.873,677.996L671.873,677.996z"/>
<path fill="#FFFFFF" d="M695.617,694.201h8.527v8.297h0.2c2.445-5.285,5.677-9.763,11.77-9.763c1.716,0,2.94,0.218,3.76,0.63v8.509
	c-0.819-0.103-1.828-0.412-4.576-0.412c-4.258,0-11.153,3.947-11.153,13.183v35.19h-8.527V694.201z"/>
<path fill="#FFFFFF" d="M726.166,675.716h8.516v9.961h-8.516V675.716z M726.166,694.201h8.516v55.635h-8.516V694.201z"/>
<path fill="#FFFFFF" d="M746.356,675.716h8.528v24.816h0.199c1.923-4.784,7.097-7.798,12.574-7.798
	c14.711,0,16.542,17.655,16.542,29.279c0,15.68-5.174,29.278-17.762,29.278c-5.876,0-10.652-4.146-11.768-8.313h-0.197v6.855h-8.117
	V675.716z M765.324,743.815c7.921,0,9.949-9.127,9.949-21.801c0-13.279-2.028-21.804-9.949-21.804
	c-9.125,0-10.958,11.006-10.958,21.804C754.366,733.433,756.197,743.815,765.324,743.815"/>
<path fill="#FFFFFF" d="M829.155,749.835h-8.118V743.3h-0.212c-2.228,5.089-7.905,7.992-13.185,7.992
	c-14.313,0-14.313-11.115-14.313-17.648V694.2h8.522v38.413c0,4.248,0.312,11.202,8.031,11.202c4.55,0,10.745-3.115,10.745-11.202
	V694.2h8.529V749.835z"/>
<path fill="#FFFFFF" d="M840.816,675.716h8.529v9.961h-8.529V675.716z M840.816,694.201h8.529v55.635h-8.529V694.201z"/>
<path fill="#FFFFFF" d="M861.005,694.201h8.529v8.297h0.199c2.439-5.285,5.692-9.763,11.767-9.763c1.739,0,2.957,0.218,3.767,0.63
	v8.509c-0.81-0.103-1.83-0.412-4.563-0.412c-4.271,0-11.169,3.947-11.169,13.183v35.19h-8.529V694.201z"/>
<path fill="#FFFFFF" d="M914.079,711.014c0-12.669,5.279-18.271,18.266-18.271c16.542,0,16.542,10.177,16.542,15.992v31.03
	c0,2.287,0,4.472,2.626,4.472c1.127,0,1.63-0.218,2.042-0.524v6.224c-0.623,0.109-2.852,0.522-4.975,0.522
	c-3.249,0-7.311,0-7.707-7.158h-0.212c-2.732,4.98-8.012,7.992-13.093,7.992c-10.135,0-14.796-6.229-14.796-16.204
	c0-7.774,3.229-13.175,10.232-15.354l11.477-3.535c6.181-1.965,6.181-3.73,6.181-8.393c0-5.204-3.038-8.216-8.729-8.216
	c-9.339,0-9.339,8.931-9.339,10.911v0.515h-8.516V711.014z M940.355,719.525c-3.144,3.425-10.651,4.149-14.511,6.539
	c-2.733,1.772-4.152,3.944-4.152,8.82c0,5.612,1.924,9.555,7.706,9.555c5.585,0,10.957-4.886,10.957-10.586V719.525L940.355,719.525
	z"/>
<rect x="985.311" y="675.716" fill="#FFFFFF" width="8.518" height="74.119"/>
<path fill="#FFFFFF" d="M1004.188,711.014c0-12.669,5.264-18.271,18.252-18.271c16.542,0,16.542,10.177,16.542,15.992v31.03
	c0,2.287,0,4.472,2.639,4.472c1.114,0,1.618-0.218,2.03-0.524v6.224c-0.61,0.109-2.841,0.522-4.976,0.522
	c-3.237,0-7.297,0-7.707-7.158h-0.199c-2.746,4.98-8.024,7.992-13.092,7.992c-10.148,0-14.818-6.229-14.818-16.204
	c0-7.774,3.25-13.175,10.255-15.354l11.461-3.535c6.194-1.965,6.194-3.73,6.194-8.393c0-5.204-3.052-8.216-8.728-8.216
	c-9.34,0-9.34,8.931-9.34,10.911v0.515h-8.514V711.014z M1030.467,719.525c-3.159,3.425-10.667,4.149-14.514,6.539
	c-2.748,1.772-4.164,3.944-4.164,8.82c0,5.612,1.935,9.555,7.719,9.555c5.571,0,10.959-4.886,10.959-10.586V719.525z"/>
<path fill="#FFFFFF" d="M1098.237,710.5c0-7.071-1.817-10.911-8.015-10.911c-2.745,0-8.82,0.734-8.82,8.523
	c0,6.534,6.699,7.78,13.385,10.062c6.606,2.285,13.292,4.675,13.292,15.675c0,11.731-7.4,17.446-17.549,17.446
	c-18.465,0-18.664-14.019-18.664-19.731h8.517c0,6.749,1.83,12.878,10.148,12.878c2.745,0,9.034-1.351,9.034-9.24
	c0-7.479-6.7-9.025-13.293-11.32c-6.594-2.273-13.397-4.248-13.397-15.769c0-10.389,7.919-15.375,17.35-15.375
	c15.826,0,16.436,11.208,16.541,17.765h-8.528V710.5z"/>
<path fill="#FFFFFF" d="M1133.15,692.735c15.719,0,19.579,13.604,19.579,29.279c0,15.68-3.953,29.278-19.579,29.278
	c-15.733,0-19.579-13.599-19.579-29.278C1113.571,706.339,1117.524,692.735,1133.15,692.735 M1143.801,722.014
	c0-12.044-1.725-22.424-10.863-22.424c-8.621,0-10.438,10.381-10.438,22.424c0,12.044,1.724,22.433,10.438,22.433
	C1141.964,744.447,1143.801,734.058,1143.801,722.014"/>
<path fill="#FFFFFF" d="M1187.126,711.116c0-5.4-2.135-11.525-8.628-11.525c-5.273,0-10.647,2.691-10.647,23.05
	c0,7.266,0.093,21.801,10.347,21.801c7.31,0,8.929-7.89,8.929-13.911h8.529c0,8.828-4.271,20.765-17.869,20.765
	c-13.292,0-18.861-9.452-18.861-28.547c0-13.918,2.625-30.019,19.38-30.019c14.804,0,17.351,11.95,17.351,18.387H1187.126
	L1187.126,711.116z"/>
<path fill="#FFFFFF" d="M1204.992,675.716h8.518v9.961h-8.518V675.716z M1204.992,694.201h8.518v55.635h-8.518V694.201z"/>
<path fill="#FFFFFF" d="M1232.281,723.058c0,8.503,0,21.373,10.452,21.373c8.117,0,9.232-8.711,9.232-12.87h8.528
	c0,5.917-3.465,19.731-18.267,19.731c-13.291,0-18.876-9.452-18.876-28.547c0-13.924,2.628-30.011,19.382-30.011
	c16.634,0,18.156,14.854,18.156,26.79v3.533H1232.281L1232.281,723.058z M1251.966,716.199v-3c0-6.242-1.923-13.61-9.445-13.61
	c-8.915,0-9.941,11.216-9.941,14.533v2.077H1251.966z"/>
<path fill="#FFFFFF" d="M1306.045,749.835h-8.118v-6.854h-0.197c-1.114,4.167-5.89,8.312-11.767,8.312
	c-12.899,0-17.762-11.737-17.762-29.278c0-11.622,1.831-29.277,17.14-29.277c4.882,0,10.056,3.012,11.979,7.796h0.21v-24.814h8.516
	V749.835z M1287.076,743.815c9.431,0,10.959-9.127,10.959-21.801c0-10.796-1.832-21.804-10.959-21.804
	c-7.92,0-9.946,8.524-9.946,21.804C1277.13,735.306,1279.157,743.815,1287.076,743.815"/>
<path fill="#FFFFFF" d="M1315.891,711.014c0-12.669,5.279-18.271,18.263-18.271c16.543,0,16.543,10.177,16.543,15.992v31.03
	c0,2.287,0,4.472,2.64,4.472c1.114,0,1.619-0.218,2.029-0.524v6.224c-0.61,0.109-2.852,0.522-4.975,0.522
	c-3.249,0-7.308,0-7.708-7.158h-0.21c-2.732,4.98-8.014,7.992-13.095,7.992c-10.147,0-14.796-6.229-14.796-16.204
	c0-7.774,3.231-13.175,10.236-15.354l11.461-3.535c6.194-1.965,6.194-3.73,6.194-8.393c0-5.204-3.037-8.216-8.729-8.216
	c-9.323,0-9.323,8.931-9.323,10.911v0.515h-8.53V711.014z M1342.166,719.525c-3.144,3.425-10.652,4.149-14.512,6.539
	c-2.733,1.772-4.152,3.944-4.152,8.82c0,5.612,1.922,9.555,7.707,9.555c5.582,0,10.957-4.886,10.957-10.586V719.525
	L1342.166,719.525z"/>
<path fill="#FFFFFF" d="M1398.079,749.835h-8.118v-6.854h-0.199c-1.115,4.167-5.89,8.312-11.766,8.312
	c-12.899,0-17.762-11.737-17.762-29.278c0-11.622,1.83-29.277,17.152-29.277c4.867,0,10.029,3.012,11.965,7.796h0.2v-24.814h8.528
	L1398.079,749.835L1398.079,749.835z M1379.109,743.815c9.432,0,10.958-9.127,10.958-21.801c0-10.796-1.83-21.804-10.958-21.804
	c-7.918,0-9.947,8.524-9.947,21.804C1369.162,735.306,1371.191,743.815,1379.109,743.815"/>
<g>
	<g>
		<defs>
			<path id="SVGID_1_" d="M962.854,221.147c0,70.229,76.063,127.165,169.873,127.165c19.253,0,37.752-2.408,54.998-6.825
				c-12.569,20.322-32.203,38.236-59.615,49.554c77.801,9.555,179.61-71.974,179.61-166.881
				c0-77.599-82.111-130.171-174.993-130.171C1038.915,93.988,962.854,150.903,962.854,221.147"/>
		</defs>
		<clipPath id="SVGID_2_">
			<use xlink:href="#SVGID_1_"  overflow="visible"/>
		</clipPath>
		
			<radialGradient id="SVGID_3_" cx="684.8384" cy="-251.376" r="0.9984" gradientTransform="matrix(159.5614 0 0 163.2405 -108138.5313 41277.5742)" gradientUnits="userSpaceOnUse">
			<stop  offset="0" style="stop-color:#51B848"/>
			<stop  offset="1" style="stop-color:#3F973B"/>
		</radialGradient>
		<rect x="962.854" y="93.988" clip-path="url(#SVGID_2_)" fill="url(#SVGID_3_)" width="344.866" height="306.607"/>
	</g>
</g>
<g>
	<g>
		<g opacity="0.3">
			<defs>
				<rect id="SVGID_4_" x="967.284" y="196.271" opacity="0.3" width="335.936" height="191.703"/>
			</defs>
			<clipPath id="SVGID_5_">
				<use xlink:href="#SVGID_4_"  overflow="visible"/>
			</clipPath>
			<g clip-path="url(#SVGID_5_)">
				<g>
					<defs>
						<path id="SVGID_6_" d="M1121.569,216.112c-54.067-24.197-111.055-22.162-151.911-15.219
							c-1.537,6.764-2.374,13.713-2.374,20.81c0,68.425,74.099,123.889,165.508,123.889c18.757,0,45.498-4.316,62.291-8.618
							c-12.244,19.807-26.741,39.98-53.472,51c72.519-5.932,158.61-68.418,161.608-159.051
							C1254.511,237.526,1181.514,242.941,1121.569,216.112"/>
					</defs>
					<clipPath id="SVGID_7_">
						<use xlink:href="#SVGID_6_"  overflow="visible"/>
					</clipPath>
					
						<linearGradient id="SVGID_8_" gradientUnits="userSpaceOnUse" x1="703.0796" y1="-236.437" x2="710.0289" y2="-236.437" gradientTransform="matrix(-1.200000e-006 -27.5898 27.5898 -1.200000e-006 7658.5044 19785.8047)">
						<stop  offset="0" style="stop-color:#FFFFFF"/>
						<stop  offset="0.095" style="stop-color:#EFEDED"/>
						<stop  offset="0.2196" style="stop-color:#D3CFCE"/>
						<stop  offset="0.3605" style="stop-color:#ABA5A3"/>
						<stop  offset="0.5134" style="stop-color:#7C7471"/>
						<stop  offset="0.6761" style="stop-color:#4B4341"/>
						<stop  offset="0.8443" style="stop-color:#1A1411"/>
						<stop  offset="1" style="stop-color:#000000"/>
					</linearGradient>
					<rect x="967.284" y="191.915" clip-path="url(#SVGID_7_)" fill="url(#SVGID_8_)" width="335.936" height="196.059"/>
				</g>
			</g>
		</g>
		<g>
			<g>
				<defs>
					<path id="SVGID_9_" d="M962.854,221.147c0,70.229,76.063,127.165,169.873,127.165c19.253,0,37.752-2.408,54.998-6.825
						c-12.569,20.322-32.203,38.236-59.615,49.554c77.801,9.555,179.61-71.974,179.61-166.881
						c0-77.599-82.111-130.171-174.993-130.171C1038.915,93.988,962.854,150.903,962.854,221.147"/>
				</defs>
				<clipPath id="SVGID_10_">
					<use xlink:href="#SVGID_9_"  overflow="visible"/>
				</clipPath>
				<path clip-path="url(#SVGID_10_)" fill="#FFFFFF" d="M1121.941,193.15c0.438,8.346,2.441,9.623,12.302,7.743
					c2.184-2.111,4.73-3.95,6.401-6.426c1.193-1.765,2.018-4.655,1.419-6.515c-0.397-1.282-3.54-2.369-5.425-2.307
					c-3.82,0.128-7.801,0.576-11.343,1.914C1123.72,188.155,1123.016,191.209,1121.941,193.15"/>
			</g>
			<g>
				<defs>
					<path id="SVGID_11_" d="M962.854,221.147c0,70.229,76.063,127.165,169.873,127.165c19.253,0,37.752-2.408,54.998-6.825
						c-12.569,20.322-32.203,38.236-59.615,49.554c77.801,9.555,179.61-71.974,179.61-166.881
						c0-77.599-82.111-130.171-174.993-130.171C1038.915,93.988,962.854,150.903,962.854,221.147"/>
				</defs>
				<clipPath id="SVGID_12_">
					<use xlink:href="#SVGID_11_"  overflow="visible"/>
				</clipPath>
				<path clip-path="url(#SVGID_12_)" fill="#FFFFFF" d="M1211.479,220.136c-3.314-5.001-6.42-8.488-13.225-6.86
					c-4.522,1.085-9.616-0.34-13.862-0.598C1196.451,224.75,1204.488,227.233,1211.479,220.136"/>
			</g>
			<g>
				<defs>
					<path id="SVGID_13_" d="M962.854,221.147c0,70.229,76.063,127.165,169.873,127.165c19.253,0,37.752-2.408,54.998-6.825
						c-12.569,20.322-32.203,38.236-59.615,49.554c77.801,9.555,179.61-71.974,179.61-166.881
						c0-77.599-82.111-130.171-174.993-130.171C1038.915,93.988,962.854,150.903,962.854,221.147"/>
				</defs>
				<clipPath id="SVGID_14_">
					<use xlink:href="#SVGID_13_"  overflow="visible"/>
				</clipPath>
				<path clip-path="url(#SVGID_14_)" fill="#FFFFFF" d="M1170.038,205.893c-7.812-3.101-15.624-6.195-23.438-9.282
					c-0.199,0.529-0.398,1.058-0.612,1.594c7.881,2.945,15.748,5.897,23.613,8.835
					C1169.749,206.66,1169.902,206.273,1170.038,205.893"/>
			</g>
			<g>
				<defs>
					<path id="SVGID_15_" d="M962.854,221.147c0,70.229,76.063,127.165,169.873,127.165c19.253,0,37.752-2.408,54.998-6.825
						c-12.569,20.322-32.203,38.236-59.615,49.554c77.801,9.555,179.61-71.974,179.61-166.881
						c0-77.599-82.111-130.171-174.993-130.171C1038.915,93.988,962.854,150.903,962.854,221.147"/>
				</defs>
				<clipPath id="SVGID_16_">
					<use xlink:href="#SVGID_15_"  overflow="visible"/>
				</clipPath>
				<path clip-path="url(#SVGID_16_)" fill="#FFFFFF" d="M1161.204,214.009c5.334,2.402,10.681,4.817,16.026,7.226
					c0.291-0.781,0.582-1.553,0.874-2.334c-5.505-2.016-10.996-4.018-16.501-6.033
					C1161.472,213.241,1161.339,213.622,1161.204,214.009"/>
			</g>
			<g>
				<defs>
					<path id="SVGID_17_" d="M962.854,221.147c0,70.229,76.063,127.165,169.873,127.165c19.253,0,37.752-2.408,54.998-6.825
						c-12.569,20.322-32.203,38.236-59.615,49.554c77.801,9.555,179.61-71.974,179.61-166.881
						c0-77.599-82.111-130.171-174.993-130.171C1038.915,93.988,962.854,150.903,962.854,221.147"/>
				</defs>
				<clipPath id="SVGID_18_">
					<use xlink:href="#SVGID_17_"  overflow="visible"/>
				</clipPath>
				<path clip-path="url(#SVGID_18_)" fill="#FFFFFF" d="M1141.27,166.307c-7.961-0.257-15.945-0.191-23.879-0.706
					c-12.324-0.808-24.607-2.131-36.93-2.917c-2.813-0.183-6.09,0.217-8.53,1.547c-19.698,10.842-39.356,21.781-58.816,33.058
					c-12.468,7.213-24.462,6.909-36.585-0.515c-3.463-2.131-7.097-3.95-11.063-6.141c-2.813,4.782-5.52,9.126-7.985,13.612
					c-6.395,11.65-12.615,23.388-19.022,35.032c-1.658,3.027-1.272,4.689,1.871,6.515c8.105,4.696,15.985,9.765,23.878,14.806
					c14.02,8.97,29.316,11.467,45.42,9.16c20.269-2.906,39.105-9.229,52.727-26.056c3.848-4.756,6.436-10.565,9.91-15.674
					c1.778-2.592,3.847-5.774,6.499-6.772c8.371-3.189,17.073-5.401,25.615-8.122c8.689-2.755,17.378-5.543,25.984-8.59
					c1.526-0.537,2.602-2.396,3.888-3.65c-9.869,1.879-11.871,0.604-12.31-7.743c-0.146-2.016-0.278-4.044-0.451-6.826
					c-8.504,1.275-17.019,1.743-25.085,3.936c-14.697,3.955-29.486,6.526-44.636,6.948c-1.712,0.034-3.45-0.651-5.173-1.004
					c0.014-0.597,0.024-1.181,0.041-1.771c1.311-0.32,2.64-0.889,3.965-0.923c16.382-0.421,32.327-3.147,48.059-7.898
					c5.917-1.784,12.417-1.5,18.625-2.334c5.372-0.726,10.717-1.649,16.064-2.612c10.027-1.805,14.313,1.67,14.605,12.05
					c12.162,5.144,24.182,10.79,36.623,15.227c5.041,1.804,10.972,1.357,16.49,1.141c1.723-0.082,4.51-2.504,4.761-4.18
					c0.278-1.832-1.406-4.52-2.999-5.951c-1.977-1.764-4.813-2.502-7.147-3.889c-12.87-7.653-25.934-14.996-38.417-23.246
					C1152.174,168.437,1147.13,166.49,1141.27,166.307 M1060.814,236.631c-12.654,20.072-56.347,34.633-76.604,24.869
					C1013.021,261.887,1038.306,253.968,1060.814,236.631"/>
			</g>
			<g>
				<defs>
					<path id="SVGID_19_" d="M962.854,221.147c0,70.229,76.063,127.165,169.873,127.165c19.253,0,37.752-2.408,54.998-6.825
						c-12.569,20.322-32.203,38.236-59.615,49.554c77.801,9.555,179.61-71.974,179.61-166.881
						c0-77.599-82.111-130.171-174.993-130.171C1038.915,93.988,962.854,150.903,962.854,221.147"/>
				</defs>
				<clipPath id="SVGID_20_">
					<use xlink:href="#SVGID_19_"  overflow="visible"/>
				</clipPath>
				<path clip-path="url(#SVGID_20_)" fill="#FFFFFF" d="M1150.899,271.386c8.303-3.244,10.757-2.361,12.415,4.466
					c-0.836,2.795-1.14,7.627-2.626,8.047c-5.053,1.433-10.652,2.226-15.771,1.458c-3.582-0.537-2.614-4.852-0.838-7.253
					C1145.964,275.559,1148.604,273.598,1150.899,271.386"/>
			</g>
			<g>
				<defs>
					<path id="SVGID_21_" d="M962.854,221.147c0,70.229,76.063,127.165,169.873,127.165c19.253,0,37.752-2.408,54.998-6.825
						c-12.569,20.322-32.203,38.236-59.615,49.554c77.801,9.555,179.61-71.974,179.61-166.881
						c0-77.599-82.111-130.171-174.993-130.171C1038.915,93.988,962.854,150.903,962.854,221.147"/>
				</defs>
				<clipPath id="SVGID_22_">
					<use xlink:href="#SVGID_21_"  overflow="visible"/>
				</clipPath>
				<path clip-path="url(#SVGID_22_)" fill="#FFFFFF" d="M1101.102,258.751c-5.201,0.041-11.766,0.828-18.094-0.148
					c-3.144-0.489-5.823-4.181-8.581-6.583c-0.094-0.075,1.114-2.28,2.08-2.938c3.914-2.693,9.71-1.839,14.578,1.921
					C1094.84,253.907,1098.594,256.811,1101.102,258.751"/>
			</g>
			<g>
				<defs>
					<path id="SVGID_23_" d="M962.854,221.147c0,70.229,76.063,127.165,169.873,127.165c19.253,0,37.752-2.408,54.998-6.825
						c-12.569,20.322-32.203,38.236-59.615,49.554c77.801,9.555,179.61-71.974,179.61-166.881
						c0-77.599-82.111-130.171-174.993-130.171C1038.915,93.988,962.854,150.903,962.854,221.147"/>
				</defs>
				<clipPath id="SVGID_24_">
					<use xlink:href="#SVGID_23_"  overflow="visible"/>
				</clipPath>
				<path clip-path="url(#SVGID_24_)" fill="#FFFFFF" d="M1117.244,265.211c7.456,2.809,14.924,5.632,22.365,8.448
					c-0.173,0.495-0.357,0.997-0.53,1.486c-7.509-2.89-15.001-5.781-22.498-8.672
					C1116.793,266.04,1117.019,265.632,1117.244,265.211"/>
			</g>
			<g>
				<defs>
					<path id="SVGID_25_" d="M962.854,221.147c0,70.229,76.063,127.165,169.873,127.165c19.253,0,37.752-2.408,54.998-6.825
						c-12.569,20.322-32.203,38.236-59.615,49.554c77.801,9.555,179.61-71.974,179.61-166.881
						c0-77.599-82.111-130.171-174.993-130.171C1038.915,93.988,962.854,150.903,962.854,221.147"/>
				</defs>
				<clipPath id="SVGID_26_">
					<use xlink:href="#SVGID_25_"  overflow="visible"/>
				</clipPath>
				<path clip-path="url(#SVGID_26_)" fill="#FFFFFF" d="M1122.803,258.697c-5.146-1.954-10.307-3.915-15.454-5.869
					c0.268-0.74,0.531-1.472,0.823-2.205c5.154,2.253,10.321,4.505,15.493,6.757C1123.374,257.815,1123.096,258.27,1122.803,258.697
					"/>
			</g>
			<g>
				<defs>
					<path id="SVGID_27_" d="M962.854,221.147c0,70.229,76.063,127.165,169.873,127.165c19.253,0,37.752-2.408,54.998-6.825
						c-12.569,20.322-32.203,38.236-59.615,49.554c77.801,9.555,179.61-71.974,179.61-166.881
						c0-77.599-82.111-130.171-174.993-130.171C1038.915,93.988,962.854,150.903,962.854,221.147"/>
				</defs>
				<clipPath id="SVGID_28_">
					<use xlink:href="#SVGID_27_"  overflow="visible"/>
				</clipPath>
				<path clip-path="url(#SVGID_28_)" fill="#FFFFFF" d="M1274.396,202.168c-27.285,4.173-49.836,15.478-61.907,42.823
					c-1.074,2.416-3.715,4.905-6.143,5.733c-9.305,3.163-18.849,5.428-28.189,8.475c-8.501,2.762-16.832,6.039-25.189,9.269
					c-0.922,0.353-1.38,1.914-2.069,2.917c8.303-3.243,10.758-2.361,12.417,4.466c0.186,3.019,0.386,6.052,0.583,9.228
					c0.942-0.082,1.965-0.095,2.944-0.271c12.802-2.389,25.549-5.129,38.416-7.111c10.029-1.548,20.19-2.212,30.312-3.087
					c0.94-0.075,2.002,1.133,2.996,1.745c-0.887,0.624-1.711,1.417-2.678,1.824c-0.745,0.306-1.687,0.041-2.521,0.149
					c-10.758,1.31-21.57,2.314-32.248,4.039c-17.203,2.782-34.329,6.1-51.508,9.065c-7.15,1.228-11.5-2.498-12.152-9.629
					c-0.138-1.426-1.351-3.414-2.572-3.956c-10.427-4.615-20.767-9.527-31.518-13.15c-5.902-1.98-12.563-1.955-18.889-2.096
					c-1.712-0.042-4.803,2.504-4.896,4.03c-0.146,2.049,1.538,4.865,3.277,6.263c2.612,2.11,6.022,3.135,8.939,4.872
					c11.726,6.92,23.757,13.367,34.899,21.157c6.114,4.262,12.151,6.23,19.262,6.637c19.765,1.167,39.702-0.808,59.307,3.515
					c2.48,0.543,5.732-0.163,8.038-1.425c21.053-11.562,41.931-23.457,62.959-35.067c7.866-4.342,16.248-4.933,24.537-1.276
					c6.463,2.851,12.735,6.176,20.31,9.894c8.914-16.869,17.629-33.486,26.425-50.063c1.394-2.62,0.094-3.692-1.931-4.824
					c-5.941-3.332-12.356-6.081-17.637-10.294C1311.99,203.225,1294.102,199.148,1274.396,202.168 M1224.347,234.847
					c20.828-22.684,46.308-31.044,76.301-25.25C1272.525,209.679,1247.018,217.794,1224.347,234.847"/>
			</g>
		</g>
	</g>
</g>
</svg>
