<?xml version="1.0" encoding="utf-8"?>
<!-- Generator: Adobe Illustrator 16.0.0, SVG Export Plug-In . SVG Version: 6.00 Build 0)  -->
<!DOCTYPE svg PUBLIC "-//W3C//DTD SVG 1.1//EN" "http://www.w3.org/Graphics/SVG/1.1/DTD/svg11.dtd">
<svg version="1.1" xmlns="http://www.w3.org/2000/svg" xmlns:xlink="http://www.w3.org/1999/xlink" x="0px" y="0px" width="80px"
	 height="80px" viewBox="0 0 80 80" enable-background="new 0 0 80 80" xml:space="preserve">
<g id="Layer_9">
	<path fill="#F2F2F2" d="M62.1,30.263l-9.43-16.335c-0.175-0.304-0.602-0.595-0.949-0.648l-18.642-2.809
		c-0.348-0.052-0.842,0.101-1.1,0.339L18.16,23.636c-0.257,0.238-0.446,0.721-0.42,1.07l1.41,18.805
		c0.026,0.35,0.285,0.797,0.575,0.996l15.58,10.629c0.29,0.199,0.801,0.275,1.137,0.172l18.016-5.557
		c0.335-0.105,0.714-0.456,0.843-0.783l6.885-17.559C62.314,31.084,62.275,30.566,62.1,30.263z M49.644,31.75l-2.957,7.54
		c-0.128,0.327-0.507,0.679-0.842,0.783l-7.737,2.386c-0.336,0.103-0.848,0.026-1.137-0.172l-6.69-4.564
		c-0.29-0.196-0.549-0.646-0.576-0.995L29.1,28.65c-0.026-0.35,0.162-0.831,0.419-1.069l5.936-5.508
		c0.258-0.24,0.751-0.393,1.099-0.339l8.006,1.205c0.347,0.054,0.774,0.345,0.949,0.647l4.05,7.018
		C49.733,30.906,49.771,31.423,49.644,31.75z"/>
	<text transform="matrix(1 0 0 1 25.6133 69.54)" fill="#CCCCCC" font-family="'ProximaNova-Regular'" font-size="12.4596">2015</text>
</g>
<g id="Layer_7">
</g>
<g id="Layer_8">
</g>
<g id="Layer_6">
</g>
<g id="Layer_5">
</g>
<g id="Layer_4">
</g>
<g id="Layer_2">
</g>
<g id="Layer_3">
</g>
<g id="Layer_1">
</g>
</svg>
