<?xml version="1.0" encoding="utf-8"?>
<!-- Generator: Adobe Illustrator 16.0.0, SVG Export Plug-In . SVG Version: 6.00 Build 0)  -->
<!DOCTYPE svg PUBLIC "-//W3C//DTD SVG 1.1//EN" "http://www.w3.org/Graphics/SVG/1.1/DTD/svg11.dtd">
<svg version="1.1" id="Capa_1" xmlns="http://www.w3.org/2000/svg" xmlns:xlink="http://www.w3.org/1999/xlink" x="0px" y="0px"
	 width="45px" height="45px" viewBox="403 135 45 45" enable-background="new 403 135 45 45" xml:space="preserve">
<g>
	<g>
		<g>
			<g>
				<path fill="#FFFFFF" d="M404.296,172.771c-1.644,1.646-1.644,4.307,0,5.95c0.822,0.823,1.899,1.232,2.977,1.232
					c1.078,0,2.155-0.409,2.977-1.232l13.817-13.818l-5.954-5.948L404.296,172.771z"/>
				<polygon fill="#FFFFFF" points="438.829,147.164 444.846,144.052 447.998,137.962 445.059,135.024 438.973,138.178 
					435.855,144.19 428.535,151.518 431.504,154.492 				"/>
				<path fill="#FFFFFF" d="M440.147,163.135l-0.567-0.056c-1.026,0-2,0.211-2.91,0.547l-17.272-17.275
					c0.337-0.909,0.547-1.883,0.547-2.91l-0.056-0.567c-0.297-4.379-3.905-7.85-8.36-7.85c-1.296,0-2.511,0.317-3.608,0.842
					l5.591,5.591c0.295,0.295,0.497,0.643,0.632,1.01c0.367,0.993,0.169,2.155-0.632,2.957c-0.546,0.547-1.265,0.822-1.983,0.822
					c-0.331,0-0.659-0.072-0.974-0.19c-0.368-0.14-0.715-0.336-1.009-0.634l-5.592-5.588c-0.524,1.097-0.841,2.312-0.841,3.608
					c0,4.455,3.47,8.063,7.85,8.36l0.566,0.056c1.027,0,2-0.211,2.909-0.544l17.271,17.272c-0.332,0.91-0.542,1.884-0.542,2.909
					l0.061,0.567c0.291,4.382,3.901,7.85,8.356,7.85c1.296,0,2.514-0.312,3.607-0.842l-5.591-5.592
					c-0.292-0.291-0.497-0.642-0.636-1.007c-0.368-0.993-0.17-2.157,0.636-2.96c0.542-0.547,1.266-0.821,1.983-0.821
					c0.331,0,0.656,0.069,0.977,0.19c0.367,0.137,0.718,0.335,1.007,0.631l5.591,5.592c0.528-1.101,0.843-2.312,0.843-3.608
					C447.998,167.041,444.526,163.433,440.147,163.135z"/>
			</g>
		</g>
	</g>
</g>
</svg>
